<svg xmlns="http://www.w3.org/2000/svg" width="24" height="24" viewBox="0 0 24 24" fill="none"><!-- Secondary: Book body --><path d="M4 4a2 2 0 0 1 2-2h12a2 2 0 0 1 2 2v16a2 2 0 0 1-2 2H6a2 2 0 0 1-2-2V4z" fill="#93C5FD"/><!-- Primary: Binding tabs --><rect x="2" y="5" width="3" height="2" rx="0.5" fill="#2563EB"/><rect x="2" y="11" width="3" height="2" rx="0.5" fill="#2563EB"/><rect x="2" y="17" width="3" height="2" rx="0.5" fill="#2563EB"/><!-- Primary: Person icon --><circle cx="12" cy="9" r="2.5" fill="#2563EB"/><path d="M8 17c0-2.2 1.8-4 4-4s4 1.8 4 4" stroke="#2563EB" stroke-width="2" stroke-linecap="round"/><!-- Primary: Border --><path d="M4 4a2 2 0 0 1 2-2h12a2 2 0 0 1 2 2v16a2 2 0 0 1-2 2H6a2 2 0 0 1-2-2V4z" stroke="#2563EB" stroke-width="2" fill="none"/></svg> 
