<svg xmlns="http://www.w3.org/2000/svg" width="24" height="24" viewBox="0 0 24 24" fill="none">
  <!-- Secondary: Pages background -->
  <path d="M2 4h6a4 4 0 0 1 4 4v13a3 3 0 0 0-3-3H2V4z" fill="#93C5FD"/>
  <path d="M22 4h-6a4 4 0 0 0-4 4v13a3 3 0 0 1 3-3h7V4z" fill="#93C5FD"/>
  <!-- Primary: Book spine and edges -->
  <path d="M12 8v13" stroke="#2563EB" stroke-width="2" stroke-linecap="round"/>
  <path d="M2 4h6a4 4 0 0 1 4 4v13a3 3 0 0 0-3-3H2V4z" stroke="#2563EB" stroke-width="2" stroke-linecap="round" stroke-linejoin="round" fill="none"/>
  <path d="M22 4h-6a4 4 0 0 0-4 4v13a3 3 0 0 1 3-3h7V4z" stroke="#2563EB" stroke-width="2" stroke-linecap="round" stroke-linejoin="round" fill="none"/>
</svg>
