<svg xmlns="http://www.w3.org/2000/svg" width="24" height="24" viewBox="0 0 24 24" fill="none">
  <!-- Corps voiture (secondaire) -->
  <path d="M3 12v4c0 .6.4 1 1 1h1c0-1.1.9-2 2-2s2 .9 2 2h6c0-1.1.9-2 2-2s2 .9 2 2h1c.6 0 1-.4 1-1v-3c0-.9-.7-1.7-1.5-1.9-.8-.2-3.5-.8-3.5-.8s-1.3-1.4-2.2-2.3c-.5-.4-1.1-.7-1.8-.7H5c-.6 0-1.1.4-1.4.9l-1.4 2.9c-.1.3-.2.6-.2.9z" fill="#93C5FD"/>
  <!-- Vitres (primaire) -->
  <path d="M6 9h4l2 2H6V9z" fill="#2563EB"/>
  <path d="M14 9h-2l2.5 2H19l-1-1.2c-.3-.4-.8-.8-1.5-.8H14z" fill="#2563EB"/>
  <!-- Roues (primaire) -->
  <circle cx="7" cy="17" r="2" fill="#2563EB"/>
  <circle cx="17" cy="17" r="2" fill="#2563EB"/>
</svg>
