<svg xmlns="http://www.w3.org/2000/svg" width="24" height="24" viewBox="0 0 24 24" fill="none">
  <!-- Secondary: Clipboard body -->
  <path d="M6 4h12a2 2 0 0 1 2 2v14a2 2 0 0 1-2 2H6a2 2 0 0 1-2-2V6a2 2 0 0 1 2-2z" fill="#93C5FD"/>
  <!-- Primary: Clipboard clip -->
  <rect x="8" y="2" width="8" height="4" rx="1" fill="#2563EB"/>
  <!-- Primary: List items -->
  <circle cx="8" cy="11" r="1" fill="#2563EB"/>
  <circle cx="8" cy="16" r="1" fill="#2563EB"/>
  <line x1="11" y1="11" x2="16" y2="11" stroke="#2563EB" stroke-width="2" stroke-linecap="round"/>
  <line x1="11" y1="16" x2="16" y2="16" stroke="#2563EB" stroke-width="2" stroke-linecap="round"/>
  <!-- Primary: Border -->
  <path d="M6 4h12a2 2 0 0 1 2 2v14a2 2 0 0 1-2 2H6a2 2 0 0 1-2-2V6a2 2 0 0 1 2-2z" stroke="#2563EB" stroke-width="2" fill="none"/>
</svg>
