<svg xmlns="http://www.w3.org/2000/svg" width="24" height="24" viewBox="0 0 24 24" fill="none"><!-- Secondary: Document body --><path d="M6 2h8.5L20 7.5V20a2 2 0 0 1-2 2H6a2 2 0 0 1-2-2V4a2 2 0 0 1 2-2z" fill="#93C5FD"/><!-- Secondary: Folded corner --><path d="M14 2v6h6" fill="#93C5FD"/><!-- Primary: Folded corner accent --><path d="M14 2v6h6" fill="#2563EB" opacity="0.3"/><!-- Primary: Border --><path d="M14 2H6a2 2 0 0 0-2 2v16a2 2 0 0 0 2 2h12a2 2 0 0 0 2-2V8l-6-6z" stroke="#2563EB" stroke-width="2" stroke-linecap="round" stroke-linejoin="round" fill="none"/><path d="M14 2v6h6" stroke="#2563EB" stroke-width="2" stroke-linecap="round" stroke-linejoin="round" fill="none"/><!-- Primary: Minus sign --><line x1="9" y1="15" x2="15" y2="15" stroke="#2563EB" stroke-width="2" stroke-linecap="round"/></svg> 
