<svg xmlns="http://www.w3.org/2000/svg" width="24" height="24" viewBox="0 0 24 24" fill="none">
  <!-- Corps document (secondaire) -->
  <path d="M6 2C4.89543 2 4 2.89543 4 4V20C4 21.1046 4.89543 22 6 22H18C19.1046 22 20 21.1046 20 20V8L14 2H6Z" fill="#93C5FD"/>
  <!-- Coin plié (primaire) -->
  <path d="M14 2V6C14 7.10457 14.8954 8 16 8H20L14 2Z" fill="#2563EB"/>
  <!-- Bordure (primaire) -->
  <path d="M6 2C4.89543 2 4 2.89543 4 4V20C4 21.1046 4.89543 22 6 22H18C19.1046 22 20 21.1046 20 20V8L14 2H6Z" stroke="#2563EB" stroke-width="1.5" fill="none"/>
</svg>
