<svg xmlns="http://www.w3.org/2000/svg" width="24" height="24" viewBox="0 0 24 24" fill="none">
  <!-- Ticket fond -->
  <path d="M2 7c0-1.1.9-2 2-2h16c1.1 0 2 .9 2 2v3c-1.1 0-2 .9-2 2s.9 2 2 2v3c0 1.1-.9 2-2 2H4c-1.1 0-2-.9-2-2v-3c1.1 0 2-.9 2-2s-.9-2-2-2V7z" fill="#93C5FD"/>
  <!-- Ligne perforée -->
  <line x1="9" y1="5" x2="9" y2="19" stroke="#2563EB" stroke-width="2" stroke-dasharray="3 2"/>
  <!-- Détails -->
  <rect x="12" y="9" width="6" height="2" rx="1" fill="#2563EB"/>
  <rect x="12" y="13" width="4" height="2" rx="1" fill="#2563EB"/>
</svg>
