<svg xmlns="http://www.w3.org/2000/svg" width="24" height="24" viewBox="0 0 24 24" fill="none"><!-- Secondary: Users silhouettes --><circle cx="9" cy="7" r="4" fill="#93C5FD"/><path d="M2 21V19C2 16.2386 4.23858 14 7 14H11C12.3062 14 13.5 14.4613 14.4279 15.2361" fill="#93C5FD"/><circle cx="17" cy="8" r="3" fill="#93C5FD"/><!-- Primary: Gear/cog --><path d="M19.5 14.5L20.2 15.9C20.3 16.1 20.5 16.2 20.7 16.2L22.2 16C22.5 16 22.7 16.3 22.6 16.6L22.1 18C22 18.2 22 18.4 22.1 18.6L23 19.8C23.2 20.1 23.1 20.4 22.8 20.5L21.4 21C21.2 21.1 21 21.3 21 21.5L21.1 23C21.1 23.3 20.8 23.6 20.5 23.5L19 23.1C18.8 23 18.6 23 18.4 23.1L17.2 24C16.9 24.2 16.6 24.1 16.5 23.8L16 22.4C15.9 22.2 15.7 22 15.5 22L14 22.1C13.7 22.1 13.4 21.8 13.5 21.5L13.9 20C14 19.8 14 19.6 13.9 19.4L13 18.2C12.8 17.9 12.9 17.6 13.2 17.5L14.6 17C14.8 16.9 15 16.7 15 16.5L14.9 15C14.9 14.7 15.2 14.4 15.5 14.5L17 14.9C17.2 15 17.4 15 17.6 14.9L18.8 14C19.1 13.8 19.4 13.9 19.5 14.5Z" fill="#2563EB"/><circle cx="18" cy="19" r="2" fill="white"/></svg> 
