<svg xmlns="http://www.w3.org/2000/svg" width="24" height="24" viewBox="0 0 24 24" fill="none">
  <!-- Ombre/reflet -->
  <path d="M14.7 6.3c-1 1-1 2.6 0 3.6l.7.7c1 1 2.6 1 3.6 0l2.7-2.7c.5 1.8.1 3.8-1.2 5.1-1.8 1.8-4.6 1.9-6.5.4L6.4 21c-.8.8-2.1.8-2.8 0-.8-.8-.8-2.1 0-2.8l7.6-7.6c-1.5-1.9-1.4-4.7.4-6.5 1.3-1.3 3.3-1.7 5.1-1.2l-2.7 2.7c-1 1-1 2.6 0 3.6z" fill="#93C5FD"/>
  <!-- Clé principale -->
  <path d="M14.7 6.3c-1 1-1 2.6 0 3.6l.7.7c1 1 2.6 1 3.6 0l2.7-2.7c.5 1.8.1 3.8-1.2 5.1-1.8 1.8-4.6 1.9-6.5.4L6.4 21c-.8.8-2.1.8-2.8 0-.8-.8-.8-2.1 0-2.8l7.6-7.6c-1.5-1.9-1.4-4.7.4-6.5 1.3-1.3 3.3-1.7 5.1-1.2l-2.7 2.7z" fill="#2563EB"/>
</svg>
